IKResults
version=1
nRows=17
nColumns=38
inDegrees=yes

Units are S.I. units (second, meters, Newtons, ...)
Angles are in degrees.

endheader
time	pelvis_tilt	pelvis_list	pelvis_rotation	pelvis_tx	pelvis_ty	pelvis_tz	hip_flexion_r	hip_adduction_r	hip_rotation_r	knee_angle_r	ankle_angle_r	subtalar_angle_r	mtp_angle_r	hip_flexion_l	hip_adduction_l	hip_rotation_l	knee_angle_l	ankle_angle_l	subtalar_angle_l	mtp_angle_l	lumbar_extension	lumbar_bending	lumbar_rotation	arm_flex_r	arm_add_r	arm_rot_r	elbow_flex_r	pro_sup_r	wrist_flex_r	wrist_dev_r	arm_flex_l	arm_add_l	arm_rot_l	elbow_flex_l	pro_sup_l	wrist_flex_l	wrist_dev_l
      0.01000000	     -3.80899302	      0.07918881	     -4.51577840	      0.67513144	      0.90878129	      0.57277089	      6.82596380	     -0.68808921	     -8.63765588	    -11.09003664	      2.11093853	     -6.11761067	      4.51699457	      3.93970631	     -2.48927295	     -8.23906445	     -6.99380725	      0.10480563	     -2.80746415	     -0.10182075	      5.06760713	     -0.54950630	      0.30204101	     11.38836988	    -62.99248330	     -1.77872534	     -2.90769834	     86.51662706	      0.00000000	      0.00000000	     15.75790811	    -71.28557883	     -1.91231683	     -1.43912297	     85.94366927	      0.00000000	      0.00000000
      0.02000000	     -3.81493044	      0.07771562	     -4.51643744	      0.67522852	      0.90876631	      0.57276254	      6.82539997	     -0.68809581	     -8.63760839	    -11.09003221	      2.11106580	     -6.11736336	      4.51785868	      3.93713760	     -2.48869397	     -8.23941765	     -6.99476599	      0.10463923	     -2.80782687	     -0.10180498	      5.06459781	     -0.55055893	      0.30061133	     11.38857611	    -62.99131866	     -1.77880723	     -2.90783206	     86.51662706	      0.00000000	      0.00000000	     15.75831411	    -71.28377056	     -1.91215110	     -1.43863859	     85.94366927	      0.00000000	      0.00000000
      0.03000000	     -3.81383210	      0.07618133	     -4.50699155	      0.67522884	      0.90878359	      0.57277651	      6.81899469	     -0.68397258	     -8.63760643	    -11.07966349	      2.11780884	     -6.10795345	      4.54950076	      3.93256579	     -2.49158973	     -8.24976343	     -6.98048147	      0.10157469	     -2.82057051	     -0.10162776	      5.03673152	     -0.54886978	      0.28715701	     11.38916389	    -62.93955575	     -1.78338689	     -2.91865426	     86.51662706	      0.00000000	      0.00000000	     15.76130501	    -71.22658789	     -1.90696859	     -1.43205816	     85.94366927	      0.00000000	      0.00000000
      0.04000000	     -3.82145147	      0.08090072	     -4.50509045	      0.67535039	      0.90872651	      0.57283778	      6.81514549	     -0.68427842	     -8.63800141	    -11.08074328	      2.11833552	     -6.10769705	      4.55147570	      3.93018668	     -2.49239821	     -8.24963523	     -6.98135064	      0.10120000	     -2.82112130	     -0.10158432	      5.03302078	     -0.54481002	      0.28875226	     11.38981453	    -62.93500615	     -1.78325636	     -2.91791087	     86.51662706	      0.00000000	      0.00000000	     15.76172375	    -71.22332311	     -1.90667058	     -1.43154959	     85.94366927	      0.00000000	      0.00000000
      0.05000000	     -3.81712230	      0.08027197	     -4.51010975	      0.67539528	      0.90873993	      0.57288592	      6.80828084	     -0.68101905	     -8.64042708	    -11.07591258	      2.12334990	     -6.10518775	      4.56788935	      3.92299276	     -2.49461267	     -8.24797725	     -6.98061736	      0.10099243	     -2.82630331	     -0.10132644	      5.02595307	     -0.54731949	      0.28500225	     11.38980589	    -62.89395617	     -1.78390886	     -2.91784211	     86.51662706	      0.00000000	      0.00000000	     15.76396034	    -71.17535669	     -1.90493845	     -1.42905435	     85.94366927	      0.00000000	      0.00000000
      0.06000000	     -3.80697330	      0.07912783	     -4.51275954	      0.67548605	      0.90878678	      0.57291578	      6.78647905	     -0.67910820	     -8.64417819	    -11.06677562	      2.13144360	     -6.09849448	      4.61052721	      3.90830549	     -2.49445508	     -8.24277738	     -6.99208213	      0.09591192	     -2.83818888	     -0.10026693	      5.01281114	     -0.54486081	      0.28476180	     11.38967340	    -62.82783365	     -1.78624725	     -2.92280040	     86.51662706	      0.00000000	      0.00000000	     15.77433508	    -71.10829924	     -1.90488030	     -1.43288172	     85.94366927	      0.00000000	      0.00000000
      0.07000000	     -3.81254958	      0.07979922	     -4.51672153	      0.67557599	      0.90875682	      0.57296769	      6.78261688	     -0.67675091	     -8.64439013	    -11.06753281	      2.13179988	     -6.09782501	      4.61379849	      3.90684058	     -2.49582151	     -8.24281135	     -6.99041011	      0.09570762	     -2.83925212	     -0.10021448	      5.00925197	     -0.54897217	      0.28030660	     11.38938493	    -62.82590229	     -1.78658025	     -2.92385445	     86.51662706	      0.00000000	      0.00000000	     15.77574757	    -71.10235166	     -1.90495702	     -1.43292671	     85.94366927	      0.00000000	      0.00000000
      0.08000000	     -3.80503264	      0.07938599	     -4.51209590	      0.67563237	      0.90878115	      0.57297509	      6.76805846	     -0.67549512	     -8.64371833	    -11.06048285	      2.14026351	     -6.09112183	      4.65424716	      3.88797117	     -2.49720835	     -8.24704692	     -6.97693814	      0.09141422	     -2.85042063	     -0.09936900	      4.99950236	     -0.55099859	      0.26892942	     11.38264242	    -62.76399365	     -1.79303672	     -2.94054644	     86.51662706	      0.00000000	      0.00000000	     15.78841207	    -71.03480195	     -1.91189388	     -1.45088566	     85.94366927	      0.00000000	      0.00000000
      0.09000000	     -3.80978109	      0.07942809	     -4.51892100	      0.67570672	      0.90873381	      0.57300120	      6.76488625	     -0.67375394	     -8.64394116	    -11.06101526	      2.14093219	     -6.09039611	      4.65848463	      3.88441504	     -2.49916986	     -8.24695979	     -6.97623342	      0.09062518	     -2.85135558	     -0.09926868	      4.99668158	     -0.55537171	      0.26152417	     11.38116455	    -62.75985006	     -1.79379023	     -2.94305528	     86.51662706	      0.00000000	      0.00000000	     15.79070094	    -71.02570193	     -1.91298733	     -1.45279317	     85.94366927	      0.00000000	      0.00000000
      0.10000000	     -3.45437043	      0.01797842	     -4.50614778	      0.67610282	      0.90924657	      0.57291869	      6.36430288	     -0.72840273	     -9.24260176	    -11.10217790	      3.68002424	     -4.77350397	     24.98883318	      3.39408538	     -2.51034393	     -8.20807386	     -6.81609531	      0.04629102	     -2.99376799	      0.16917710	      4.61947467	     -0.50167666	      0.41481034	     11.16538713	    -62.73412778	     -1.00881250	     -3.54253034	     86.51662706	      0.00000000	      0.00000000	     17.29370477	    -70.80302384	      0.28700903	     -2.33419702	     85.94366927	      0.00000000	      0.00000000
      0.11000000	     -3.45904894	      0.01703236	     -4.50932230	      0.67611884	      0.90925139	      0.57297701	      6.36551949	     -0.72168825	     -9.23346448	    -11.09866001	      3.68149899	     -4.76973605	     24.98866188	      3.39338776	     -2.51483945	     -8.20324382	     -6.81127133	      0.04157914	     -2.99151119	      0.16936768	      4.61151695	     -0.51109462	      0.40892022	     11.16557006	    -62.69809129	     -1.01205531	     -3.54745564	     86.51662706	      0.00000000	      0.00000000	     17.29046663	    -70.76929550	      0.28708895	     -2.33505380	     85.94366927	      0.00000000	      0.00000000
      0.12000000	     -3.46226978	      0.01780776	     -4.51476082	      0.67619956	      0.90921178	      0.57299660	      6.36473022	     -0.72298463	     -9.23226439	    -11.09887268	      3.68172160	     -4.76932870	     24.98863220	      3.39161745	     -2.51592052	     -8.20218155	     -6.81327562	      0.04054305	     -2.99112292	      0.16941102	      4.61012770	     -0.51024616	      0.40385622	     11.16470508	    -62.69001816	     -1.01277984	     -3.54897401	     86.51662706	      0.00000000	      0.00000000	     17.29034893	    -70.76259212	      0.28693377	     -2.33524207	     85.94366927	      0.00000000	      0.00000000
      0.13000000	     -3.46245064	      0.01739448	     -4.51529897	      0.67623388	      0.90919823	      0.57301870	      6.36488436	     -0.72292647	     -9.23213672	    -11.09883023	      3.68174551	     -4.76927606	     24.98863023	      3.39155765	     -2.51567922	     -8.20213387	     -6.81350502	      0.04046240	     -2.99110621	      0.16941307	      4.60978918	     -0.51051524	      0.40324774	     11.16459390	    -62.68903256	     -1.01286085	     -3.54913585	     86.51662706	      0.00000000	      0.00000000	     17.29031473	    -70.76138425	      0.28690450	     -2.33526989	     85.94366927	      0.00000000	      0.00000000
      0.14000000	     -3.46188775	      0.01745974	     -4.51928958	      0.67627023	      0.90925054	      0.57308958	      6.35660554	     -0.71544473	     -9.22263075	    -11.09934866	      3.68436604	     -4.76454585	     24.98832692	      3.38912642	     -2.52050620	     -8.20212476	     -6.81856657	      0.03509617	     -2.99313167	      0.16952778	      4.61366163	     -0.51716211	      0.39864072	     11.15321966	    -62.58962354	     -1.01985693	     -3.56328885	     86.51662706	      0.00000000	      0.00000000	     17.27851774	    -70.67673077	      0.28207077	     -2.35174256	     85.94366927	      0.00000000	      0.00000000
      0.15000000	     -3.46288325	      0.01747634	     -4.51979315	      0.67629615	      0.90919577	      0.57310622	      6.35655704	     -0.71528487	     -9.22257101	    -11.09930779	      3.68439307	     -4.76449197	     24.98832698	      3.38863472	     -2.52020255	     -8.20212160	     -6.81897482	      0.03494115	     -2.99311823	      0.16953317	      4.61309429	     -0.51699173	      0.39807050	     11.15304826	    -62.58887229	     -1.01992307	     -3.56347332	     86.51662706	      0.00000000	      0.00000000	     17.27847640	    -70.67613253	      0.28204212	     -2.35183041	     85.94366927	      0.00000000	      0.00000000
      0.16000000	     -3.46494967	      0.01465345	     -4.52632880	      0.67635514	      0.90920420	      0.57314891	      6.35076872	     -0.70868003	     -9.21511369	    -11.09256784	      3.69104110	     -4.76174840	     24.98789179	      3.39134893	     -2.52522118	     -8.20014467	     -6.83174586	      0.02656371	     -2.99514517	      0.16969312	      4.61154192	     -0.51306277	      0.39722639	     11.13751823	    -62.52298356	     -1.02703498	     -3.58323283	     86.51662706	      0.00000000	      0.00000000	     17.26503008	    -70.63588661	      0.27830439	     -2.36958827	     85.94366927	      0.00000000	      0.00000000
      0.17000000	     -3.47284522	      0.01464600	     -4.52577298	      0.67644742	      0.90919848	      0.57319040	      6.34640851	     -0.70450976	     -9.20992688	    -11.08091604	      3.69773070	     -4.76082889	     24.98765155	      3.39510828	     -2.53022813	     -8.19477959	     -6.83648602	      0.02604715	     -2.99880450	      0.16953631	      4.61021592	     -0.50089420	      0.41617368	     11.13009202	    -62.43524671	     -1.01450352	     -3.55524555	     86.51662706	      0.00000000	      0.00000000	     17.25944781	    -70.60449842	      0.27883467	     -2.37331825	     85.94366927	      0.00000000	      0.00000000
